<svg width="112" height="26" viewBox="0 0 112 26" fill="none" xmlns="http://www.w3.org/2000/svg">
<g clip-path="url(#clip0_11845_75472)">
<path d="M16.6391 14.3658C16.2678 13.83 15.7933 13.3823 15.2154 13.0206C14.6375 12.6608 13.9429 12.4446 13.1334 12.3738V12.3049C13.828 12.1652 14.4174 11.9203 14.9035 11.572C15.3895 11.2237 15.7895 10.7989 16.1014 10.2976C16.4133 9.79622 16.6448 9.23745 16.796 8.62128C16.9472 8.00511 17.0218 7.36981 17.0218 6.71919C17.0218 4.83241 16.4726 3.32643 15.3723 2.19742C14.2739 1.06841 12.567 0.503906 10.2535 0.503906H0.5V25.4359H10.2535C11.5949 25.4359 12.7411 25.256 13.6903 24.8943C14.6394 24.5326 15.4086 24.0275 15.998 23.3749C16.5874 22.7243 17.0218 21.9436 17.2993 21.0346C17.5767 20.1276 17.7164 19.1383 17.7164 18.0667C17.7164 17.4161 17.6303 16.7693 17.4562 16.1282C17.282 15.4872 17.0103 14.8997 16.641 14.3639L16.6391 14.3658ZM6.95448 5.18259H8.51596C9.18762 5.18259 9.69663 5.43901 10.043 5.95185C10.3893 6.46469 10.5635 7.06938 10.5635 7.76783C10.5635 8.46628 10.3893 9.03079 10.043 9.53023C9.69663 10.0316 9.18571 10.2804 8.51596 10.2804H6.95448V5.18259ZM10.3568 20.0051C9.89373 20.5065 9.36176 20.7572 8.76089 20.7572H6.9564V14.6816H8.76089C9.36176 14.6816 9.89373 14.938 10.3568 15.4508C10.8199 15.9637 11.0514 16.708 11.0514 17.6859C11.0514 18.7326 10.8199 19.5076 10.3568 20.007V20.0051Z" fill="#005EAE"/>
<path d="M24.2742 0.5L18.3383 25.4319H25.1066L25.7668 21.0671L26.5303 16.1798L28.3004 5.59776H28.3693L30.1393 16.1798L30.9028 21.0671L31.563 25.4319H38.4347L32.3954 0.5H24.2742Z" fill="#005EAE"/>
<path d="M50.9648 15.8641H50.8959L46.73 0.5H39.5101V25.4319H45.5513V10.0334H45.6202L49.9238 25.4319H57.004V0.5H50.9648V15.8641Z" fill="#005EAE"/>
<path d="M74.7411 5.80825V0.5H60.0583V25.4319H66.5147V15.1656H74.2206V10.0679H66.5147V5.80825H74.7411Z" fill="#005EAE"/>
<path d="M83.6705 25.2467H76.3375V11.6758H78.904V23.2563H83.6705V25.2467Z" fill="#005EAE"/>
<path d="M92.6533 25.2467H85.4304V11.6758H92.6533V13.6662H87.9969V17.0861H92.2866V19.0765H87.9969V23.2563H92.6533V25.2467Z" fill="#005EAE"/>
<path d="M101.819 25.2467H94.5965V11.6758H101.819V13.6662H97.163V17.0861H101.453V19.0765H97.163V23.2563H101.819V25.2467Z" fill="#005EAE"/>
<path d="M102.901 13.6662V11.6758H111.462V13.6662H108.474V25.2467H105.908V13.6662H102.901Z" fill="#005EAE"/>
</g>
<defs>
<clipPath id="clip0_11845_75472">
<rect width="111" height="24.9973" fill="white" transform="translate(0.5 0.5)"/>
</clipPath>
</defs>
</svg>
