<svg width="111" height="25" viewBox="0 0 111 25" fill="none" xmlns="http://www.w3.org/2000/svg">
<g clip-path="url(#clip0_16536_11522)">
<path d="M16.1391 13.8658C15.7678 13.33 15.2933 12.8823 14.7154 12.5206C14.1375 12.1608 13.4429 11.9446 12.6334 11.8738V11.8049C13.328 11.6652 13.9174 11.4203 14.4035 11.072C14.8895 10.7237 15.2895 10.2989 15.6014 9.79757C15.9133 9.29622 16.1448 8.73745 16.296 8.12128C16.4472 7.50511 16.5218 6.86981 16.5218 6.21919C16.5218 4.33241 15.9726 2.82643 14.8723 1.69742C13.7739 0.56841 12.067 0.00390625 9.75348 0.00390625H0V24.9359H9.75348C11.0949 24.9359 12.2411 24.756 13.1903 24.3943C14.1394 24.0326 14.9086 23.5275 15.498 22.8749C16.0874 22.2243 16.5218 21.4436 16.7993 20.5346C17.0767 19.6276 17.2164 18.6383 17.2164 17.5667C17.2164 16.9161 17.1303 16.2693 16.9562 15.6282C16.782 14.9872 16.5103 14.3997 16.141 13.8639L16.1391 13.8658ZM6.45448 4.68259H8.01596C8.68762 4.68259 9.19663 4.93901 9.54299 5.45185C9.88934 5.96469 10.0635 6.56938 10.0635 7.26783C10.0635 7.96628 9.88934 8.53079 9.54299 9.03023C9.19663 9.53159 8.68571 9.78035 8.01596 9.78035H6.45448V4.68259ZM9.85681 19.5051C9.39373 20.0065 8.86176 20.2572 8.26089 20.2572H6.4564V14.1816H8.26089C8.86176 14.1816 9.39373 14.438 9.85681 14.9508C10.3199 15.4637 10.5514 16.208 10.5514 17.1859C10.5514 18.2326 10.3199 19.0076 9.85681 19.507V19.5051Z" fill="black"/>
<path d="M23.7743 0L17.8384 24.9319H24.6067L25.2669 20.5671L26.0304 15.6798L27.8004 5.09776H27.8693L29.6394 15.6798L30.4029 20.5671L31.0631 24.9319H37.9347L31.8955 0H23.7743Z" fill="black"/>
<path d="M50.4649 15.3641H50.396L46.2302 0H39.0103V24.9319H45.0514V9.53342H45.1203L49.4239 24.9319H56.5041V0H50.4649V15.3641Z" fill="black"/>
<path d="M74.241 5.30825V0H59.5581V24.9319H66.0145V14.6656H73.7205V9.56787H66.0145V5.30825H74.241Z" fill="black"/>
<path d="M83.1703 24.7467H75.8374V11.1758H78.4039V22.7563H83.1703V24.7467Z" fill="black"/>
<path d="M92.1532 24.7467H84.9302V11.1758H92.1532V13.1662H87.4968V16.5861H91.7865V18.5765H87.4968V22.7563H92.1532V24.7467Z" fill="black"/>
<path d="M101.319 24.7467H94.0964V11.1758H101.319V13.1662H96.6629V16.5861H100.953V18.5765H96.6629V22.7563H101.319V24.7467Z" fill="black"/>
<path d="M102.401 13.1662V11.1758H110.962V13.1662H107.974V24.7467H105.407V13.1662H102.401Z" fill="black"/>
</g>
<defs>
<clipPath id="clip0_16536_11522">
<rect width="111" height="24.9973" fill="white"/>
</clipPath>
</defs>
</svg>
